<svg width="67" height="80" viewBox="0 0 67 80" fill="none" xmlns="http://www.w3.org/2000/svg">
<g clip-path="url(#clip0_4671_4784)">
<circle cx="33.5" cy="33.5" r="33.5" fill="white"/>
<path d="M22.8294 38.1C22.0361 38.1 21.3694 37.9533 20.8294 37.66C20.2894 37.3667 19.8827 36.95 19.6094 36.41C19.3361 35.87 19.1994 35.23 19.1994 34.49C19.1994 33.7433 19.3461 33.1 19.6394 32.56C19.9327 32.0133 20.3527 31.5933 20.8994 31.3C21.4527 31 22.1161 30.85 22.8894 30.85C23.4027 30.85 23.8527 30.92 24.2394 31.06C24.6261 31.1933 24.9661 31.39 25.2594 31.65L24.8294 32.65C24.6161 32.4833 24.4127 32.35 24.2194 32.25C24.0261 32.15 23.8261 32.08 23.6194 32.04C23.4127 31.9933 23.1727 31.97 22.8994 31.97C22.1261 31.97 21.5394 32.19 21.1394 32.63C20.7461 33.0633 20.5494 33.6867 20.5494 34.5C20.5494 35.3133 20.7361 35.9333 21.1094 36.36C21.4894 36.7867 22.0827 37 22.8894 37C23.1627 37 23.4361 36.9733 23.7094 36.92C23.9894 36.8667 24.2627 36.79 24.5294 36.69L24.2894 37.23V35.12H22.6394V34.18H25.3594V37.57C25.0327 37.7367 24.6427 37.8667 24.1894 37.96C23.7361 38.0533 23.2827 38.1 22.8294 38.1ZM26.8318 38V30.95H29.3918C30.1984 30.95 30.8784 31.09 31.4318 31.37C31.9918 31.6433 32.4151 32.0433 32.7018 32.57C32.9884 33.09 33.1318 33.7233 33.1318 34.47C33.1318 35.21 32.9884 35.8433 32.7018 36.37C32.4151 36.8967 31.9918 37.3 31.4318 37.58C30.8784 37.86 30.1984 38 29.3918 38H26.8318ZM28.1218 36.93H29.3118C30.1651 36.93 30.7984 36.7267 31.2118 36.32C31.6251 35.9133 31.8318 35.2967 31.8318 34.47C31.8318 33.6367 31.6251 33.02 31.2118 32.62C30.7984 32.2133 30.1651 32.01 29.3118 32.01H28.1218V36.93ZM34.4489 38V30.95H37.5789C38.3523 30.95 38.9423 31.1367 39.3489 31.51C39.7556 31.8833 39.9589 32.3967 39.9589 33.05C39.9589 33.6967 39.7556 34.21 39.3489 34.59C38.9423 34.97 38.3523 35.16 37.5789 35.16H35.7389V38H34.4489ZM35.7389 34.14H37.4289C37.8556 34.14 38.1756 34.0467 38.3889 33.86C38.6023 33.6667 38.7089 33.3967 38.7089 33.05C38.7089 32.7033 38.6023 32.4367 38.3889 32.25C38.1756 32.0567 37.8556 31.96 37.4289 31.96H35.7389V34.14ZM41.1091 38V30.95H44.1891C44.9624 30.95 45.5591 31.1333 45.9791 31.5C46.4058 31.8667 46.6191 32.3767 46.6191 33.03C46.6191 33.4633 46.5224 33.8333 46.3291 34.14C46.1424 34.4467 45.8724 34.6833 45.5191 34.85C45.1658 35.01 44.7491 35.09 44.2691 35.09L44.4091 34.9H44.7491C45.0291 34.9 45.2791 34.9733 45.4991 35.12C45.7191 35.2667 45.8991 35.49 46.0391 35.79L47.0691 38H45.6491L44.6091 35.71C44.5158 35.4767 44.3724 35.3233 44.1791 35.25C43.9924 35.1767 43.7658 35.14 43.4991 35.14H42.3991V38H41.1091ZM42.3991 34.19H43.9791C44.4324 34.19 44.7758 34.0967 45.0091 33.91C45.2491 33.7167 45.3691 33.4367 45.3691 33.07C45.3691 32.7033 45.2491 32.4267 45.0091 32.24C44.7758 32.0533 44.4324 31.96 43.9791 31.96H42.3991V34.19Z" fill="black"/>
<g clip-path="url(#clip1_4671_4784)">
<path d="M33.9652 4.10171C33.9652 4.13453 33.7541 4.79571 33.5009 5.56942L33.0414 6.97617H31.4893C30.2842 6.97617 29.9466 6.99023 29.9934 7.03244C30.0263 7.06526 30.5796 7.46853 31.222 7.93744C31.8691 8.40167 32.399 8.80494 32.4084 8.82838C32.4177 8.85183 32.2302 9.46611 31.9957 10.1976C31.4471 11.8857 31.4752 11.7919 31.5409 11.7497C31.5737 11.7357 32.1317 11.3324 32.7788 10.8588C33.4306 10.3852 33.9839 10.0007 34.0121 10.0007C34.0402 10.0007 34.5935 10.3852 35.2453 10.8588C35.8924 11.3324 36.4504 11.7357 36.4832 11.7497C36.5489 11.7919 36.577 11.8857 36.0284 10.1976C35.7939 9.46611 35.6064 8.85183 35.6157 8.82838C35.6251 8.80494 36.1597 8.40167 36.8021 7.93275C37.4492 7.46853 37.9978 7.06057 38.0307 7.03244C38.0729 6.99023 37.7071 6.97617 36.5348 6.97617H34.9827L34.5232 5.56942C34.27 4.79571 34.0589 4.13453 34.0589 4.10171C34.0589 4.07358 34.0402 4.04544 34.0121 4.04544C33.9886 4.04544 33.9652 4.07358 33.9652 4.10171Z" fill="black"/>
<path d="M20.8676 8.06445C20.7691 8.36924 20.5581 9.03041 20.394 9.53215L20.0939 10.4465L18.5464 10.47L16.999 10.4934L18.2323 11.3844C18.9122 11.872 19.4702 12.2894 19.4749 12.3128C19.4749 12.3316 19.2639 12.9928 19.006 13.7852C18.7481 14.5777 18.5464 15.2295 18.5511 15.2342C18.5558 15.2436 19.1232 14.8403 19.8031 14.3432C20.4878 13.8462 21.0692 13.4523 21.0927 13.471C21.6788 13.8978 23.5592 15.2529 23.5685 15.2529C23.5779 15.2529 23.5498 15.1404 23.5029 15.0044C23.395 14.6855 22.8792 13.1006 22.7386 12.6504L22.626 12.2988L23.8686 11.3938L25.1113 10.4934L23.5732 10.47L22.0305 10.4465L21.9508 10.2121C21.9086 10.0808 21.6976 9.43837 21.4865 8.78189C21.2755 8.12541 21.088 7.57209 21.0739 7.54864C21.0551 7.52988 20.9614 7.76434 20.8676 8.06445Z" fill="black"/>
<path d="M46.9382 7.53926C46.9241 7.5674 46.7412 8.12541 46.5302 8.78189C46.3192 9.43837 46.1082 10.0808 46.066 10.2121L45.9863 10.4465L44.4248 10.4606L42.8633 10.47L43.909 11.2296C44.4857 11.647 45.0531 12.0549 45.1703 12.144L45.3907 12.2988L45.0953 13.2038C44.5795 14.7699 44.4248 15.2529 44.4435 15.2529C44.4529 15.2529 45.0203 14.845 45.7049 14.3432L46.9569 13.4335L48.2042 14.3432C48.8889 14.8403 49.4562 15.2436 49.4656 15.2389C49.4703 15.2295 49.2687 14.5777 49.0108 13.7852C48.7529 12.9928 48.5419 12.3316 48.5419 12.3128C48.5465 12.2894 49.1046 11.872 49.7845 11.3844L51.0177 10.4934L49.4703 10.47L47.9229 10.4465L47.604 9.46182C47.4258 8.91787 47.2101 8.2567 47.1257 7.98473C47.0366 7.71745 46.9522 7.51582 46.9382 7.53926Z" fill="black"/>
<path d="M11.1525 18.229C10.9274 18.9277 10.7117 19.5935 10.6742 19.7155L10.6085 19.9405L9.06109 19.9499L7.51367 19.964L8.7563 20.869L9.99893 21.7693L9.93797 21.9709C9.90514 22.0788 9.69413 22.7353 9.46436 23.4246C9.23928 24.1186 9.06578 24.6907 9.07047 24.7C9.07985 24.7094 9.63786 24.3155 10.3084 23.8278C10.979 23.3402 11.551 22.9416 11.5745 22.9416C11.6026 22.9416 12.17 23.3449 12.8406 23.8278C13.5111 24.3155 14.0644 24.7094 14.0738 24.7C14.0879 24.6907 13.2532 22.0694 13.1594 21.8303C13.15 21.8021 13.7034 21.3707 14.388 20.869L15.64 19.964L14.0926 19.9499L12.5451 19.9405L12.0903 18.5432C11.8465 17.7788 11.6261 17.1083 11.6026 17.0567C11.5745 16.9911 11.4573 17.3005 11.1525 18.229Z" fill="black"/>
<path d="M55.9511 18.4508L55.4634 19.9419L53.9207 19.9513L52.3779 19.9654L53.6065 20.8516C54.277 21.3393 54.835 21.7519 54.8444 21.766C54.8538 21.7801 54.7741 22.0473 54.6756 22.3568C54.0238 24.3497 53.9066 24.7249 53.9207 24.7249C53.93 24.7249 54.4787 24.331 55.1398 23.8527C55.801 23.3744 56.3684 22.9711 56.4012 22.957C56.4341 22.943 57.0155 23.3369 57.6954 23.8245C58.3707 24.3169 58.9334 24.7108 58.9428 24.7014C58.9568 24.692 58.788 24.1715 58.1315 22.1505C58.0659 21.9629 58.0284 21.7894 58.0377 21.7707C58.0518 21.7519 58.6098 21.3346 59.2804 20.8516L60.5042 19.9654L58.9568 19.9513L57.4094 19.9419L56.9217 18.4508L56.4341 16.9643L55.9511 18.4508Z" fill="black"/>
<path d="M7.71439 31.0776C7.50337 31.72 7.28767 32.3906 7.2314 32.5641L7.12824 32.8829L5.58551 32.8923L4.03809 32.9064L5.2854 33.8161C6.12945 34.4303 6.52334 34.7445 6.50927 34.7914C6.40611 35.0493 5.58551 37.6283 5.59958 37.6424C5.60427 37.6518 6.16228 37.2579 6.83282 36.7749C7.50337 36.2872 8.07545 35.8887 8.0989 35.884C8.12703 35.884 8.69442 36.2826 9.36497 36.7702C10.0355 37.2626 10.5888 37.6518 10.5982 37.6424C10.6123 37.633 9.787 35.0493 9.68383 34.7773C9.67446 34.7445 10.2278 34.3131 10.9124 33.8161L12.1644 32.9064L10.617 32.8923L9.06486 32.8829L8.58188 31.3918L8.09421 29.9053L7.71439 31.0776Z" fill="black"/>
<path d="M59.4267 31.3912L58.939 32.8824L57.3962 32.8918L55.8535 32.9058L57.0961 33.8108L58.3388 34.7158L58.2544 34.9831C57.5932 37.0088 57.4103 37.5903 57.4197 37.6184C57.4291 37.6419 57.9824 37.2574 58.6529 36.7697C59.3235 36.282 59.8956 35.8834 59.919 35.8834C59.9472 35.8881 60.5145 36.2867 61.1851 36.7744C61.8556 37.2621 62.409 37.6559 62.4183 37.6466C62.423 37.6372 62.3996 37.5387 62.3621 37.4262C61.8228 35.785 61.4899 34.758 61.4899 34.744C61.4899 34.7299 62.0526 34.3126 62.7372 33.8155L63.9845 32.9058L62.4324 32.8918L60.885 32.8824L60.3973 31.3912L59.9096 29.9048L59.4267 31.3912Z" fill="black"/>
<path d="M11.1908 44.0253C10.9797 44.6677 10.764 45.3336 10.7078 45.5071L10.6046 45.8259L9.05719 45.8353L7.50977 45.8494L8.76177 46.7591C9.51204 47.303 9.99971 47.6922 9.98564 47.725C9.87779 48.0064 9.06188 50.576 9.07594 50.5901C9.09001 50.5995 9.64802 50.2056 10.3233 49.7179C10.9985 49.2256 11.5612 48.827 11.5753 48.827C11.5893 48.827 12.1333 49.2115 12.7851 49.6851C14.1684 50.6933 14.1074 50.6511 14.0746 50.5338C14.0418 50.426 13.1883 47.7954 13.1602 47.7203C13.1508 47.6875 13.7041 47.2561 14.3935 46.7591L15.6501 45.8494L14.0933 45.8353L12.5412 45.8259L12.0911 44.4286C11.8425 43.6642 11.6268 42.9937 11.6034 42.9468C11.58 42.8811 11.4627 43.1859 11.1908 44.0253Z" fill="black"/>
<path d="M55.9941 44.2311C55.7455 44.9908 55.5298 45.6613 55.5111 45.7176L55.4829 45.8254L53.9308 45.8348L52.374 45.8489L53.6213 46.7539L54.8687 47.6589L54.8077 47.8558C54.7749 47.9637 54.6154 48.4514 54.456 48.9437C54.0199 50.2801 53.9308 50.5709 53.9496 50.5896C53.959 50.599 54.4935 50.2239 55.1359 49.755C55.783 49.2907 56.3411 48.8875 56.3833 48.8593C56.4395 48.8265 56.7256 49.0141 57.6868 49.7128C58.3668 50.2098 58.9295 50.6037 58.9388 50.5943C58.9482 50.5849 58.906 50.4208 58.8404 50.2286C58.7044 49.8112 58.0901 47.9074 58.0479 47.7621C58.0198 47.673 58.1558 47.5604 59.2671 46.7539L60.5144 45.8489L58.9623 45.8348L57.4149 45.8254L56.9272 44.3343L56.4395 42.8478L55.9941 44.2311Z" fill="black"/>
<path d="M20.572 53.816L20.1031 55.2744L18.5369 55.2978L16.9707 55.3212L18.2227 56.2309C18.912 56.728 19.4747 57.15 19.4747 57.1688C19.4747 57.1828 19.2637 57.8393 19.0105 58.6271C18.7526 59.4149 18.5509 60.0667 18.5603 60.0714C18.5697 60.0807 19.1136 59.7009 19.7654 59.2273C20.4172 58.7537 20.9799 58.3504 21.0081 58.3317C21.0456 58.3082 21.5145 58.6177 22.2976 59.1851C22.9728 59.6775 23.5308 60.0714 23.5449 60.062C23.559 60.0479 22.7477 57.497 22.6352 57.2063C22.6258 57.1735 23.1369 56.7749 23.8825 56.2356L25.1486 55.3212L23.5871 55.3072L22.0256 55.2978L21.7583 54.4631C21.3269 53.1361 21.0831 52.3858 21.0643 52.3718C21.055 52.3624 20.8346 53.0095 20.572 53.816Z" fill="black"/>
<path d="M46.9288 52.39C46.9147 52.4275 46.699 53.0981 46.4458 53.8765L45.991 55.2973L44.4248 55.3067L42.8633 55.3207L44.1247 56.2304L45.386 57.1354L45.1563 57.8482C45.0297 58.2374 44.814 58.9032 44.6733 59.3253C44.5326 59.752 44.4201 60.1037 44.4295 60.1084C44.4341 60.113 44.9968 59.7051 45.6815 59.208C46.3661 58.711 46.9475 58.3077 46.9757 58.3171C47.0038 58.3312 47.5665 58.7297 48.2277 59.208C48.8889 59.6863 49.4375 60.0802 49.4516 60.0802C49.4656 60.0802 49.4703 60.0521 49.4562 60.0193C49.0248 58.7204 48.5419 57.1636 48.5606 57.1354C48.5747 57.112 49.1374 56.6947 49.8173 56.207L51.0459 55.3207L49.4797 55.2973L47.9135 55.2738L47.4352 53.7968C47.1726 52.9855 46.9428 52.3525 46.9288 52.39Z" fill="black"/>
<path d="M33.5194 57.3141L33.0505 58.7677L31.489 58.7771L29.9229 58.7912L31.1514 59.6774C31.8267 60.1651 32.3893 60.5871 32.3987 60.6199C32.4128 60.6528 32.2862 61.0982 32.1174 61.6094C31.9533 62.1205 31.7422 62.7629 31.6532 63.0349C31.5641 63.3068 31.4984 63.5366 31.5078 63.546C31.5172 63.5554 32.0752 63.1568 32.7551 62.6644C33.435 62.1721 33.9977 61.7688 34.0118 61.7688C34.0259 61.7688 34.5886 62.1721 35.2685 62.6644C35.9484 63.1568 36.5064 63.5554 36.5158 63.546C36.5252 63.5366 36.4595 63.3068 36.3704 63.0349C36.2814 62.7629 36.0703 62.1205 35.9062 61.6094C35.7374 61.0982 35.6108 60.6528 35.6249 60.6199C35.6342 60.5871 36.1969 60.1651 36.8675 59.6774L38.0914 58.7912L36.5346 58.7771L34.9731 58.7677L34.5042 57.3141C34.2509 56.5122 34.0259 55.8604 34.0118 55.8604C33.9977 55.8604 33.7727 56.5122 33.5194 57.3141Z" fill="black"/>
</g>
<path d="M4.73072 78.08C4.09605 78.08 3.56272 77.9627 3.13072 77.728C2.69872 77.4933 2.37339 77.16 2.15472 76.728C1.93605 76.296 1.82672 75.784 1.82672 75.192C1.82672 74.5947 1.94405 74.08 2.17872 73.648C2.41339 73.2107 2.74939 72.8747 3.18672 72.64C3.62939 72.4 4.16005 72.28 4.77872 72.28C5.18939 72.28 5.54939 72.336 5.85872 72.448C6.16805 72.5547 6.44005 72.712 6.67472 72.92L6.33072 73.72C6.16005 73.5867 5.99739 73.48 5.84272 73.4C5.68805 73.32 5.52805 73.264 5.36272 73.232C5.19739 73.1947 5.00539 73.176 4.78672 73.176C4.16805 73.176 3.69872 73.352 3.37872 73.704C3.06405 74.0507 2.90672 74.5493 2.90672 75.2C2.90672 75.8507 3.05605 76.3467 3.35472 76.688C3.65872 77.0293 4.13339 77.2 4.77872 77.2C4.99739 77.2 5.21605 77.1787 5.43472 77.136C5.65872 77.0933 5.87739 77.032 6.09072 76.952L5.89872 77.384V75.696H4.57872V74.944H6.75472V77.656C6.49339 77.7893 6.18139 77.8933 5.81872 77.968C5.45605 78.0427 5.09339 78.08 4.73072 78.08ZM7.93259 78V72.36H9.98059C10.6259 72.36 11.1699 72.472 11.6126 72.696C12.0606 72.9147 12.3993 73.2347 12.6286 73.656C12.8579 74.072 12.9726 74.5787 12.9726 75.176C12.9726 75.768 12.8579 76.2747 12.6286 76.696C12.3993 77.1173 12.0606 77.44 11.6126 77.664C11.1699 77.888 10.6259 78 9.98059 78H7.93259ZM8.96459 77.144H9.91659C10.5993 77.144 11.1059 76.9813 11.4366 76.656C11.7673 76.3307 11.9326 75.8373 11.9326 75.176C11.9326 74.5093 11.7673 74.016 11.4366 73.696C11.1059 73.3707 10.5993 73.208 9.91659 73.208H8.96459V77.144ZM14.0263 78V72.36H16.5303C17.149 72.36 17.621 72.5093 17.9463 72.808C18.2717 73.1067 18.4343 73.5173 18.4343 74.04C18.4343 74.5573 18.2717 74.968 17.9463 75.272C17.621 75.576 17.149 75.728 16.5303 75.728H15.0583V78H14.0263ZM15.0583 74.912H16.4103C16.7517 74.912 17.0077 74.8373 17.1783 74.688C17.349 74.5333 17.4343 74.3173 17.4343 74.04C17.4343 73.7627 17.349 73.5493 17.1783 73.4C17.0077 73.2453 16.7517 73.168 16.4103 73.168H15.0583V74.912ZM19.3545 78V72.36H21.8185C22.4371 72.36 22.9145 72.5067 23.2505 72.8C23.5918 73.0933 23.7625 73.5013 23.7625 74.024C23.7625 74.3707 23.6851 74.6667 23.5305 74.912C23.3811 75.1573 23.1651 75.3467 22.8825 75.48C22.5998 75.608 22.2665 75.672 21.8825 75.672L21.9945 75.52H22.2665C22.4905 75.52 22.6905 75.5787 22.8665 75.696C23.0425 75.8133 23.1865 75.992 23.2985 76.232L24.1225 78H22.9865L22.1545 76.168C22.0798 75.9813 21.9651 75.8587 21.8105 75.8C21.6611 75.7413 21.4798 75.712 21.2665 75.712H20.3865V78H19.3545ZM20.3865 74.952H21.6505C22.0131 74.952 22.2878 74.8773 22.4745 74.728C22.6665 74.5733 22.7625 74.3493 22.7625 74.056C22.7625 73.7627 22.6665 73.5413 22.4745 73.392C22.2878 73.2427 22.0131 73.168 21.6505 73.168H20.3865V74.952ZM29.791 78.08C29.2043 78.08 28.7003 77.9627 28.279 77.728C27.863 77.488 27.543 77.152 27.319 76.72C27.095 76.2827 26.983 75.768 26.983 75.176C26.983 74.584 27.095 74.072 27.319 73.64C27.543 73.208 27.863 72.8747 28.279 72.64C28.7003 72.4 29.2043 72.28 29.791 72.28C30.1856 72.28 30.5403 72.336 30.855 72.448C31.175 72.56 31.4496 72.7253 31.679 72.944L31.343 73.76C31.0923 73.5573 30.8496 73.4133 30.615 73.328C30.3856 73.2373 30.1216 73.192 29.823 73.192C29.2523 73.192 28.815 73.3653 28.511 73.712C28.2123 74.0533 28.063 74.5413 28.063 75.176C28.063 75.8107 28.2123 76.3013 28.511 76.648C28.815 76.9947 29.2523 77.168 29.823 77.168C30.1216 77.168 30.3856 77.1253 30.615 77.04C30.8496 76.9493 31.0923 76.8 31.343 76.592L31.679 77.408C31.4496 77.6213 31.175 77.7867 30.855 77.904C30.5403 78.0213 30.1856 78.08 29.791 78.08ZM34.1063 78.08C33.6903 78.08 33.3303 77.9947 33.0263 77.824C32.7223 77.6533 32.4849 77.4107 32.3143 77.096C32.1489 76.7813 32.0663 76.408 32.0663 75.976C32.0663 75.544 32.1489 75.1733 32.3143 74.864C32.4849 74.5493 32.7223 74.3067 33.0263 74.136C33.3303 73.9653 33.6903 73.88 34.1063 73.88C34.5223 73.88 34.8823 73.9653 35.1863 74.136C35.4956 74.3067 35.7329 74.5493 35.8983 74.864C36.0689 75.1733 36.1543 75.544 36.1543 75.976C36.1543 76.408 36.0689 76.7813 35.8983 77.096C35.7329 77.4107 35.4956 77.6533 35.1863 77.824C34.8823 77.9947 34.5223 78.08 34.1063 78.08ZM34.1063 77.312C34.4209 77.312 34.6716 77.2027 34.8583 76.984C35.0449 76.76 35.1383 76.424 35.1383 75.976C35.1383 75.528 35.0449 75.1947 34.8583 74.976C34.6716 74.7573 34.4209 74.648 34.1063 74.648C33.7916 74.648 33.5409 74.7573 33.3543 74.976C33.1676 75.1947 33.0743 75.528 33.0743 75.976C33.0743 76.424 33.1676 76.76 33.3543 76.984C33.5409 77.2027 33.7916 77.312 34.1063 77.312ZM37.0167 78V74.968C37.0167 74.8027 37.0113 74.6347 37.0007 74.464C36.99 74.2933 36.974 74.1253 36.9527 73.96H37.9207L38.0007 74.76H37.9047C38.0167 74.4827 38.1873 74.2667 38.4167 74.112C38.6513 73.9573 38.9287 73.88 39.2487 73.88C39.5687 73.88 39.8327 73.9573 40.0407 74.112C40.254 74.2613 40.4033 74.496 40.4887 74.816H40.3607C40.4727 74.528 40.6567 74.3013 40.9127 74.136C41.1687 73.9653 41.462 73.88 41.7927 73.88C42.246 73.88 42.5847 74.0133 42.8087 74.28C43.0327 74.5467 43.1447 74.9627 43.1447 75.528V78H42.1447V75.568C42.1447 75.248 42.0913 75.0187 41.9847 74.88C41.878 74.736 41.7073 74.664 41.4727 74.664C41.1953 74.664 40.9767 74.7627 40.8167 74.96C40.6567 75.152 40.5767 75.4133 40.5767 75.744V78H39.5767V75.568C39.5767 75.248 39.5233 75.0187 39.4167 74.88C39.31 74.736 39.1393 74.664 38.9047 74.664C38.6273 74.664 38.4087 74.7627 38.2487 74.96C38.094 75.152 38.0167 75.4133 38.0167 75.744V78H37.0167ZM44.212 79.728V74.968C44.212 74.8027 44.2066 74.6347 44.196 74.464C44.1853 74.2933 44.1693 74.1253 44.148 73.96H45.116L45.204 74.808H45.116C45.196 74.5253 45.364 74.3013 45.62 74.136C45.8813 73.9653 46.1826 73.88 46.524 73.88C46.8813 73.88 47.1933 73.9653 47.46 74.136C47.7266 74.3013 47.9346 74.5413 48.084 74.856C48.2333 75.1653 48.308 75.5387 48.308 75.976C48.308 76.4133 48.2333 76.7893 48.084 77.104C47.9346 77.4187 47.7266 77.6613 47.46 77.832C47.1933 77.9973 46.8813 78.08 46.524 78.08C46.188 78.08 45.892 77.9973 45.636 77.832C45.38 77.6667 45.2093 77.4453 45.124 77.168H45.212V79.728H44.212ZM46.244 77.312C46.564 77.312 46.82 77.2027 47.012 76.984C47.204 76.76 47.3 76.424 47.3 75.976C47.3 75.528 47.204 75.1947 47.012 74.976C46.82 74.7573 46.564 74.648 46.244 74.648C45.9293 74.648 45.676 74.7573 45.484 74.976C45.292 75.1947 45.196 75.528 45.196 75.976C45.196 76.424 45.292 76.76 45.484 76.984C45.676 77.2027 45.9293 77.312 46.244 77.312ZM49.1729 78V72.112H50.1729V78H49.1729ZM51.2588 78V73.96H52.2588V78H51.2588ZM51.2028 73.2V72.224H52.3148V73.2H51.2028ZM54.9048 78.08C54.5528 78.08 54.2434 77.9973 53.9768 77.832C53.7101 77.6613 53.5021 77.4187 53.3528 77.104C53.2034 76.7893 53.1288 76.4133 53.1288 75.976C53.1288 75.5387 53.2034 75.1653 53.3528 74.856C53.5021 74.5413 53.7101 74.3013 53.9768 74.136C54.2434 73.9653 54.5528 73.88 54.9048 73.88C55.2461 73.88 55.5448 73.9653 55.8008 74.136C56.0621 74.3013 56.2354 74.5253 56.3208 74.808H56.2328L56.3208 73.96H57.2808C57.2648 74.1253 57.2488 74.2933 57.2328 74.464C57.2221 74.6347 57.2168 74.8027 57.2168 74.968V78H56.2248L56.2168 77.168H56.3128C56.2274 77.4453 56.0541 77.6667 55.7928 77.832C55.5314 77.9973 55.2354 78.08 54.9048 78.08ZM55.1848 77.312C55.4994 77.312 55.7528 77.2027 55.9448 76.984C56.1368 76.76 56.2328 76.424 56.2328 75.976C56.2328 75.528 56.1368 75.1947 55.9448 74.976C55.7528 74.7573 55.4994 74.648 55.1848 74.648C54.8701 74.648 54.6168 74.7573 54.4248 74.976C54.2328 75.1947 54.1368 75.528 54.1368 75.976C54.1368 76.424 54.2301 76.76 54.4168 76.984C54.6088 77.2027 54.8648 77.312 55.1848 77.312ZM58.3057 78V74.968C58.3057 74.8027 58.3004 74.6347 58.2897 74.464C58.2791 74.2933 58.2631 74.1253 58.2417 73.96H59.2097L59.2897 74.76H59.1937C59.3217 74.4773 59.5111 74.2613 59.7617 74.112C60.0124 73.9573 60.3031 73.88 60.6337 73.88C61.1084 73.88 61.4657 74.0133 61.7057 74.28C61.9457 74.5467 62.0657 74.9627 62.0657 75.528V78H61.0657V75.576C61.0657 75.2507 61.0017 75.0187 60.8737 74.88C60.7511 74.736 60.5644 74.664 60.3137 74.664C60.0044 74.664 59.7591 74.76 59.5777 74.952C59.3964 75.144 59.3057 75.4 59.3057 75.72V78H58.3057ZM64.854 78.08C64.374 78.08 64.0114 77.9547 63.766 77.704C63.5207 77.4533 63.398 77.0773 63.398 76.576V74.712H62.622V73.96H63.398V72.928L64.398 72.672V73.96H65.478V74.712H64.398V76.512C64.398 76.7893 64.4514 76.984 64.558 77.096C64.6647 77.208 64.8114 77.264 64.998 77.264C65.0994 77.264 65.1847 77.256 65.254 77.24C65.3287 77.224 65.4007 77.2027 65.47 77.176V77.968C65.3794 78.0053 65.278 78.032 65.166 78.048C65.0594 78.0693 64.9554 78.08 64.854 78.08Z" fill="white"/>
</g>
<defs>
<clipPath id="clip0_4671_4784">
<rect width="67" height="80" fill="white"/>
</clipPath>
<clipPath id="clip1_4671_4784">
<rect width="60.0212" height="59.5992" fill="white" transform="translate(3 4)"/>
</clipPath>
</defs>
</svg>
