<svg width="60" height="58" viewBox="0 0 60 58" fill="none" xmlns="http://www.w3.org/2000/svg">
<path style="mix-blend-mode:multiply" d="M59.0547 24.051L51.3006 15.563C50.9261 15.1535 50.6581 14.6621 50.515 14.1309C50.4673 13.9536 50.4339 13.7723 50.4148 13.5887C50.3115 12.582 50.2081 11.5746 50.1055 10.568C50.0825 10.3437 50.0093 10.1298 49.8956 9.94219C49.8384 9.84836 49.7708 9.7609 49.6937 9.68138C49.6165 9.60187 49.5306 9.5311 49.436 9.46988C49.0512 9.2218 48.66 8.98723 48.2648 8.76539C47.0777 8.10146 45.8452 7.55997 44.5881 7.14332C46.0925 5.25011 47.5961 3.35531 49.1005 1.46051C46.4082 0.541335 43.521 0.0419922 40.5178 0.0419922C34.5583 0.0419922 29.0568 2.00438 24.6255 5.31929C18.1484 10.1632 13.9564 17.8935 13.9564 26.6034C13.9564 41.272 25.8468 53.164 40.517 53.164C46.3827 53.164 51.8071 51.262 56.2018 48.0394C53.721 48.1475 47.8728 48.0728 42.0723 44.3309C40.0678 43.038 34.2418 39.2897 32.8663 32.388C32.7541 31.8266 32.681 31.282 32.6341 30.7532C32.6182 30.5679 32.6047 30.385 32.5951 30.2045C32.5919 30.1401 32.5872 30.0741 32.584 30.0097C32.5744 29.776 32.5705 29.5462 32.5713 29.3212C32.5713 29.2575 32.5737 29.1955 32.5744 29.1327C32.5768 28.961 32.5816 28.7916 32.5896 28.6246C32.5927 28.5546 32.5959 28.4847 32.5999 28.4155C32.6126 28.2112 32.6269 28.01 32.646 27.8144C32.6468 27.8048 32.6476 27.7945 32.6484 27.785C34.5432 29.0278 36.5795 29.3943 37.8708 29.4953C38.4576 29.5414 38.8902 29.5319 39.0858 29.5255C41.1889 29.4547 41.8942 28.79 43.5401 28.8361C43.7755 28.8425 44.0299 28.864 44.3098 28.9037C44.9054 28.988 45.3363 29.1152 48.9128 30.7699C52.2818 32.3291 53.1239 32.8285 54.0017 32.8857C54.1273 32.8937 54.2529 32.8929 54.3873 32.8857C55.4512 32.8221 56.3489 32.52 57.0574 32.1701C57.3707 32.0135 57.6466 31.8489 57.8835 31.6914C58.4218 31.3305 58.7828 30.7596 58.8862 30.1187C58.9212 29.9032 58.9546 29.6885 58.9895 29.473C59.0977 28.7948 59.2058 28.1173 59.314 27.4391C59.4022 26.892 59.4897 26.3458 59.5764 25.7995C59.6781 25.1674 59.4857 24.5241 59.054 24.0518L59.0547 24.051Z" fill="url(#paint0_linear_372_4679)"/>
<path style="mix-blend-mode:multiply" opacity="0.9" d="M52.2748 26.4319L44.5207 17.9438C44.1462 17.5343 43.8782 17.043 43.7351 16.5118C43.6874 16.3345 43.654 16.1532 43.6349 15.9695C43.5316 14.9629 43.4282 13.9555 43.3256 12.9488C43.3026 12.7246 43.2294 12.5107 43.1157 12.323C43.0585 12.2292 42.9909 12.1418 42.9137 12.0622C42.8366 11.9827 42.7507 11.912 42.6561 11.8507C42.2713 11.6027 41.8801 11.3681 41.4849 11.1463C40.2978 10.4823 39.0653 9.94083 37.8082 9.52418C39.3126 7.63097 40.8162 5.73617 42.3206 3.84137C39.6283 2.92219 36.7411 2.42285 33.7379 2.42285C27.7784 2.42285 22.2769 4.38524 17.8456 7.70015C11.3685 12.5441 7.17651 20.2744 7.17651 28.9843C7.17651 43.6529 19.0669 55.5449 33.7371 55.5449C39.6028 55.5449 45.0272 53.6429 49.4219 50.4202C46.9411 50.5284 41.0929 50.4536 35.2924 46.7117C33.2879 45.4188 27.4619 41.6706 26.0864 34.7688C25.9742 34.2075 25.9011 33.6628 25.8542 33.1341C25.8383 32.9488 25.8248 32.7659 25.8152 32.5854C25.812 32.521 25.8073 32.455 25.8041 32.3906C25.7945 32.1568 25.7906 31.927 25.7914 31.702C25.7914 31.6384 25.7937 31.5764 25.7945 31.5136C25.7969 31.3418 25.8017 31.1725 25.8096 31.0055C25.8128 30.9355 25.816 30.8655 25.82 30.7964C25.8327 30.592 25.847 30.3908 25.8661 30.1952C25.8669 30.1857 25.8677 30.1754 25.8685 30.1658C27.7633 31.4086 29.7996 31.7752 31.0909 31.8762C31.6777 31.9223 32.1103 31.9127 32.3059 31.9064C34.409 31.8356 35.1143 31.1709 36.7602 31.217C36.9956 31.2233 37.25 31.2448 37.5299 31.2846C38.1255 31.3689 38.5564 31.4961 42.1329 33.1507C45.5019 34.71 46.3439 35.2093 47.2218 35.2666C47.3474 35.2745 47.473 35.2738 47.6074 35.2666C48.6713 35.203 49.569 34.9008 50.2775 34.551C50.5907 34.3943 50.8667 34.2297 51.1036 34.0723C51.6419 33.7113 52.0029 33.1404 52.1063 32.4995C52.1413 32.2841 52.1747 32.0694 52.2096 31.8539C52.3178 31.1756 52.4259 30.4982 52.5341 29.8199C52.6223 29.2729 52.7098 28.7266 52.7964 28.1804C52.8982 27.5482 52.7058 26.905 52.274 26.4327L52.2748 26.4319Z" fill="url(#paint1_linear_372_4679)"/>
<path style="mix-blend-mode:multiply" opacity="0.98" d="M45.4952 28.8142L37.741 20.3262C37.3665 19.9167 37.0986 19.4253 36.9555 18.8941C36.9077 18.7168 36.8744 18.5355 36.8553 18.3518C36.7519 17.3452 36.6485 16.3378 36.546 15.3311C36.5229 15.1069 36.4497 14.893 36.336 14.7054C36.2788 14.6115 36.2112 14.5241 36.1341 14.4446C36.057 14.3651 35.9711 14.2943 35.8765 14.2331C35.4916 13.985 35.1004 13.7504 34.7052 13.5286C33.5181 12.8646 32.2856 12.3232 31.0285 11.9065C32.5329 10.0133 34.0365 8.11849 35.5409 6.22369C32.8486 5.30452 29.9615 4.80518 26.9583 4.80518C20.9987 4.80518 15.4972 6.76756 11.0659 10.0825C4.58879 14.9264 0.396851 22.6567 0.396851 31.3666C0.396851 46.0352 12.2873 57.9272 26.9575 57.9272C32.8231 57.9272 38.2475 56.0252 42.6422 52.8026C40.1614 52.9107 34.3132 52.8359 28.5127 49.0941C26.5082 47.8012 20.6823 44.0529 19.3067 37.1512C19.1946 36.5898 19.1214 36.0451 19.0745 35.5164C19.0586 35.3311 19.0451 35.1482 19.0356 34.9677C19.0324 34.9033 19.0276 34.8373 19.0244 34.7729C19.0149 34.5392 19.0109 34.3094 19.0117 34.0843C19.0117 34.0207 19.0141 33.9587 19.0149 33.8959C19.0173 33.7241 19.022 33.5548 19.03 33.3878C19.0332 33.3178 19.0363 33.2479 19.0403 33.1787C19.053 32.9743 19.0674 32.7732 19.0864 32.5776C19.0872 32.568 19.088 32.5577 19.0888 32.5481C20.9836 33.7909 23.02 34.1575 24.3113 34.2585C24.8981 34.3046 25.3306 34.295 25.5262 34.2887C27.6293 34.2179 28.3346 33.5532 29.9806 33.5993C30.2159 33.6057 30.4704 33.6271 30.7502 33.6669C31.3458 33.7512 31.7768 33.8784 35.3533 35.5331C38.7222 37.0923 39.5643 37.5917 40.4421 37.6489C40.5677 37.6569 40.6934 37.6561 40.8278 37.6489C41.8916 37.5853 42.7893 37.2832 43.4978 36.9333C43.8111 36.7767 44.087 36.6121 44.3239 36.4546C44.8623 36.0936 45.2232 35.5227 45.3266 34.8819C45.3616 34.6664 45.395 34.4517 45.43 34.2362C45.5381 33.558 45.6463 32.8805 45.7544 32.2023C45.8427 31.6552 45.9301 31.109 46.0168 30.5627C46.1186 29.9306 45.9261 29.2873 45.4944 28.815L45.4952 28.8142Z" fill="url(#paint2_linear_372_4679)"/>
<defs>
<linearGradient id="paint0_linear_372_4679" x1="36.7799" y1="53.0583" x2="36.7799" y2="1.55115" gradientUnits="userSpaceOnUse">
<stop stop-color="#00D6F0"/>
<stop offset="1" stop-color="#1AF7DE"/>
</linearGradient>
<linearGradient id="paint1_linear_372_4679" x1="30" y1="55.0113" x2="30" y2="2.90232" gradientUnits="userSpaceOnUse">
<stop stop-color="#B06CEC"/>
<stop offset="1" stop-color="#8DAEED"/>
</linearGradient>
<linearGradient id="paint2_linear_372_4679" x1="23.2203" y1="57.5606" x2="23.2203" y2="4.96341" gradientUnits="userSpaceOnUse">
<stop stop-color="#FF429F"/>
<stop offset="1" stop-color="#FF8B17"/>
</linearGradient>
</defs>
</svg>
